<svg id="Layer_1" data-name="Layer 1" xmlns="http://www.w3.org/2000/svg" viewBox="0 0 1697.28 600"><defs><style>.cls-1{fill:#fff;}</style></defs><title>Artboard 1</title><path class="cls-1" d="M322,255.22C363.87,176.1,380.5,64.3,311.13,33.34,294.5,16.14,266.41,9.83,232,21.87,168.94,43.66,62.88,148,62.3,270.12c0,37.27,12,71.67,40.13,92.88h-4c-29.81-1.15-51.6,8-61.92,21.79-2.86,4-.57,7.45,5.16,6.3,74.53-17.2,111.23,36.12,172.58,56.76,28.09,9.75,66.5,8.6,85.42-16.05,3.44-4,4-8.6-5.73-6.88-39.56,8-79.69-20.07-123.27-41.85C230.86,380.2,285.33,324,322,255.22ZM128.23,355.55C89.82,338.35,91,242,145.43,157.75,199.33,74.05,271,34.48,299.09,46c31.53,12.61,32.68,98-18.93,193.21C233.15,326.31,166.07,372.75,128.23,355.55Z"/><path class="cls-1" d="M1168.73,283.88a305.36,305.36,0,0,1-101.48,88.3c24.08-55.62,59-124.42,76.25-157.67,14.91-29.24,10.32-53.89,2.3-64.21-5.16-4.59-9.18-3.44-14.34,4-20.06,29.24-44.72,80.84-69.37,123.26-29.24,49.88-57.91,86.58-80.26,84.86-13.19-1.15-14.34-21.22-2.87-49.31,10.89-26.95,23.51-50.45,44.15-83.7,21.21-33.83,24.65-57.91,10.89-76.25-4-5.74-9.75-6.31-14.34,0-37.26,51.59-65.35,108.35-78,145-1.65,4.74-3.07,9.53-4.22,14.31-17.55,30.79-39.78,54.25-58.8,53.35-17.2-.58-24.08-23.51-14.33-55,9.75-31,39-69.95,65.93-99.76,17.2-18.92,2.87-46.44-8.6-59-4-5.74-9.17-2.87-16,1.72-22.36,14.9-42.43,24.08-62.49,26.94,14.33-37.26,20.06-72.24,2.29-71.66-24.08,1.14-80.26,77.4-36.12,95.74-31.53,72.81-94.6,163.4-157.66,160.53-29.24-1.14-43.58-38.41-25.23-90.58,40.13,32.1,78.54,17.77,105.49-17.2,22.93-29.24,28.67-63.07,18.92-76.83C741.65,168.07,731.33,160,717,151.44c-28.66-16.62-87.14,15.48-123.26,86.58-10.48,20.62-15.89,41-16.88,59.71-21.42,36-47.69,67.66-69.67,68.71-20.64,1.15-22.93-22.93-8-55.61,13.19-29.24,41.86-72.24,54.47-98,13.76-28.67,9.17-53.89.57-64.21-4.58-5.74-8.6-4.59-14.33,3.44-18.34,24.65-35,64.21-71.09,122.69-31,49.88-62.49,90-84.85,88.29-13.19-1.15-14.91-21.79-2.87-49.88,12-27.52,23.51-50.45,44.72-84.28,20.64-32.68,23.51-58.48,10.89-77.4-4.58-5.16-10.32-5.73-14.9.58-37.27,52.17-66.51,108.35-79.12,146.19s-11.47,80.27,29.24,83.14c32.11,2.29,62.49-27,82.56-53.9-4.59,33.26,10.32,56.76,47.58,56.76,29.86,0,61-22.78,79.38-50.2,9.82,28.78,34.55,47.93,72.53,47.34C722.15,380.2,784.07,308,831.66,208.2c17.77,0,43.57-5.73,68.8-21.78-24.65,27.52-59.05,69.94-71.09,108.35-14.34,46.44,2.86,85.43,46.44,87.72,21.19,1.16,43.65-10.41,60.47-28.54,4.07,14.95,14.59,25.72,34.65,27.4,22.94,1.72,44.72-13.19,62.49-31.54-6.3,13.77-12,28.1-17.77,41.28C958.89,413.45,910.16,447.85,893,499.45c-11.47,33.83,0,53.9,11.47,71.09,10.89,16.06,21.78,16.06,32.67,12.05,47.59-18.35,88.3-110.66,120.4-187.48,47.59-19.5,87.72-41.28,110.08-76.83,9.75-14.91,11.47-28.09,10.32-33.25C1176.75,279.3,1171.59,279.87,1168.73,283.88ZM636.16,252.35c26.37-52.75,73.38-88.87,86-78,7.46,6.3-4.58,36.11-22.93,59.62-17.2,21.79-39.56,45.3-67.65,28.1C633.29,259.23,634.44,255.22,636.16,252.35Zm279.73,298.7c-10.32-14.33,15.48-92.88,90-135.88C970.36,499.45,923.35,561.94,915.89,551.05Z"/><path class="cls-1" d="M1286.82,216.8c-26.37,0-68.8,6.31-99.76,4.59-6.31-.57-6.88,2.87-5.73,8,3.44,17.2,14.9,29.24,41.85,30.38,26.37,1.15,58.48-8.6,100.33-5.16,6.31.58,7.45-2.87,6.31-8C1326.38,230,1315.49,216.8,1286.82,216.8Z"/><path class="cls-1" d="M1509.82,21.3c-3.43-6.88-8.6-8-13.76-.58-46.44,67.08-127.27,215-155.37,293-12.61,35-5.73,55,2.3,63.63,4.58,5.16,6.88,4.59,9.17-1.14,41.85-94,104.92-204.68,140.46-267.17C1517.28,65.45,1517.85,37.92,1509.82,21.3Z"/><path class="cls-1" d="M1637.09,133.1c-4.59-7.46-13.19-17.77-35.55-17.2,13.76-29.81,13.76-48.74,7.45-64.79-2.86-6.88-8.6-7.45-13.76,0-9.74,12.61-25.8,39.56-43.57,71.09a325.84,325.84,0,0,1-47.59,2.3c-8.6-.57-12,3.44-6.3,11.46,4.58,6.31,17.77,14.91,37.27,14.91-24.66,45.29-48.74,93.45-60.78,122.12-27.52,65.93,2.87,108.36,40.71,109.5,45.86,1.72,83.7-48.73,91.16-65.35,5.73-13.19,8.6-23.51,5.73-32.68-2.29-8-8.6-6.89-12,0-21.21,43-53.89,83.7-79.69,82.55-24.08-1.14-30.39-36.69-11.47-78.54,21.79-48.16,54.47-103.77,76.83-142.19,14.33-2.29,32.1-4,44.71-2.29C1638.8,144,1641.1,140,1637.09,133.1Z"/></svg>